<?xml version="1.0" encoding="utf-8"?>
<!-- Generator: Adobe Illustrator 19.1.1, SVG Export Plug-In . SVG Version: 6.00 Build 0)  -->
<svg version="1.1" id="Layer_1" xmlns="http://www.w3.org/2000/svg" xmlns:xlink="http://www.w3.org/1999/xlink" x="0px" y="0px"
	 viewBox="0 0 306.7 214" style="enable-background:new 0 0 306.7 214;" xml:space="preserve">
<style type="text/css">
	.st0{fill:#49AE59;}
	.st1{fill:#CDCCCC;}
</style>
<g id="XMLID_144_">
	<g id="XMLID_1252_">
		<g id="XMLID_1253_">
			<path id="XMLID_1254_" class="st0" d="M57.9,118.2c0,1.8-1,2.7-2.7,2.7H38.4c-1.8,0-2.7-1-2.7-2.7V35.6h-7.9
				c-1.8,0-2.7-1-2.7-2.7V17.5c0-1.8,1-2.7,2.7-2.7h27.4c1.8,0,2.7,1,2.7,2.7V118.2z"/>
		</g>
	</g>
	<g id="XMLID_1249_">
		<g id="XMLID_1250_">
			<path id="XMLID_1251_" class="st0" d="M248.1,126.6c-2,1-2.8,3.5-1.8,5.5l14.6,27.6c0.8,1.6,2.1,2,3.7,1.2l14.9-7.6
				c1.6-0.8,2-2.1,1.2-3.7l-14.6-27.6c-1-2-3.5-2.8-5.5-1.8L248.1,126.6z"/>
		</g>
	</g>
	<g id="XMLID_1245_">
		<g id="XMLID_1246_">
			<path id="XMLID_1247_" class="st0" d="M99.5,50.6c6-2.5,13.1-3.7,20.8-3.7c24,0,44.6,11.9,44.6,37c0,25.9-25.1,38.6-47.7,38.6
				c-23.2,0-35.7-6.2-48.1-18.7c-1.4-1.4-1.4-2.5-0.2-3.7L80,88.4c1-1,2.9-1.2,3.9-0.2c9.2,9.2,17.5,13.1,32.5,13.1
				s25.7-5.6,25.7-17.3c0-11.5-9.4-16.6-24.7-16.6c-8.6,0-16,1.6-23.2,5.3c-1.2,0.6-2.3,0.8-3.5,0.6l-11.9-2.9
				c-1.6-0.4-2.1-1.4-1.9-3.1l3.7-49.7c0.2-1.8,1.2-2.7,2.7-2.7H155c1.8,0,2.7,1,2.7,2.7v15.8c0,1.8-1,2.7-2.7,2.7h-54.7L99.5,50.6z
				"/>
		</g>
	</g>
	<g id="XMLID_1240_">
		<g id="XMLID_1241_">
			<path id="XMLID_1242_" class="st0" d="M225,14c30.6,0,55.1,23.6,55.1,54.7c0,31.4-24.5,54.5-55.1,54.5
				c-30.8,0-55.3-23.2-55.3-54.5C169.7,37.6,194.2,14,225,14z M192.5,68.7c0,19.3,13.1,33.3,32.5,33.3c19.3,0,32.3-14,32.3-33.3
				c0-19.7-13.1-33.5-32.3-33.5C205.5,35.2,192.5,49.1,192.5,68.7z"/>
		</g>
	</g>
	<g id="XMLID_1219_">
		<g id="XMLID_1236_">
			<path id="XMLID_1237_" class="st0" d="M51.2,137.3c7.4,0,12.9,5.3,12.9,12.1c0,7.1-5.6,12.3-12.9,12.3h-8.8v8
				c0,0.5-0.3,0.9-0.9,0.9h-5.4c-0.5,0-0.9-0.3-0.9-0.9v-31.5c0-0.5,0.3-0.9,0.9-0.9H51.2z M51.2,155c3.7,0,5.9-2.3,5.9-5.6
				c0-3.2-2.1-5.4-5.9-5.4h-8.8v11H51.2z"/>
		</g>
		<g id="XMLID_1232_">
			<path id="XMLID_1233_" class="st0" d="M88.9,136.8c9.6,0,17.5,7.4,17.5,17.1c0,9.8-7.9,17.1-17.5,17.1c-9.6,0-17.5-7.3-17.5-17.1
				C71.4,144.2,79.3,136.8,88.9,136.8z M78.6,153.9c0,6,4.3,10.4,10.4,10.4c6,0,10.3-4.4,10.3-10.4c0-6.2-4.3-10.5-10.3-10.5
				C82.8,143.4,78.6,147.8,78.6,153.9z"/>
		</g>
		<g id="XMLID_1229_">
			<path id="XMLID_1230_" class="st0" d="M121.8,137.3c0.5,0,0.9,0.3,0.9,0.9v31.5c0,0.5-0.3,0.9-0.9,0.9h-5.4
				c-0.5,0-0.9-0.3-0.9-0.9v-31.5c0-0.5,0.3-0.9,0.9-0.9H121.8z"/>
		</g>
		<g id="XMLID_1226_">
			<path id="XMLID_1227_" class="st0" d="M157.5,170.5c-0.4,0-0.7-0.1-0.9-0.4l-8.4-10.6l-8.4-11.9l-0.3,0.1l0.4,10.3v11.7
				c0,0.5-0.3,0.9-0.9,0.9h-5.2c-0.5,0-0.9-0.3-0.9-0.9v-31.5c0-0.5,0.3-0.9,0.9-0.9h4.7c0.5,0,0.9,0.1,1.2,0.4l9.2,11.6l7.7,10.9
				l0.3-0.1l-0.4-10.3v-11.7c0-0.5,0.3-0.9,0.9-0.9h5.2c0.5,0,0.9,0.3,0.9,0.9v31.5c0,0.5-0.3,0.9-0.9,0.9H157.5z"/>
		</g>
		<g id="XMLID_1223_">
			<path id="XMLID_1224_" class="st0" d="M200.4,137.3c0.5,0,0.9,0.3,0.9,0.9v5c0,0.5-0.3,0.9-0.9,0.9h-10.6v25.7
				c0,0.5-0.3,0.9-0.9,0.9h-5.4c-0.5,0-0.9-0.3-0.9-0.9V144h-10.6c-0.5,0-0.9-0.3-0.9-0.9v-5c0-0.5,0.3-0.9,0.9-0.9H200.4z"/>
		</g>
		<g id="XMLID_1220_">
			<path id="XMLID_1221_" class="st0" d="M235.3,141.9c0.4,0.3,0.5,0.7,0.2,1.1l-3.1,3.8c-0.4,0.4-0.8,0.5-1.3,0.1
				c-2.7-2.2-6.3-3.4-10.5-3.4c-4.2,0-6.4,1.2-6.4,3.1c0,2,1.8,2.9,7.4,3.5c8.5,0.8,14.7,3.7,14.7,10.6c0,6.7-6.2,10.5-14.6,10.5
				c-6.1,0-10.9-1.5-15.3-5.1c-0.4-0.3-0.4-0.7-0.1-1.2l2.9-3.8c0.4-0.5,0.8-0.5,1.2-0.2c3.4,2.6,6.5,3.8,11.3,3.8
				c5.1,0,7.4-1.5,7.4-3.8c0-2.4-2.3-3.4-8.5-4c-8.2-0.7-13.6-3.1-13.6-10c0-6,5.8-9.9,13.8-9.9
				C226.3,136.8,231.3,138.6,235.3,141.9z"/>
		</g>
	</g>
	<g id="XMLID_1171_">
		<path id="XMLID_1217_" class="st1" d="M38.6,192c0.2-1.4,0.3-1.8,0.3-2c0-0.4-0.2-0.5-0.6-0.5h-1.9l0.4-2h3.2
			c1.6,0,1.9,0.8,1.9,1.5c0,0.4-0.1,1.1-0.4,2.7l-1.8,11.3h4.2c1,0,1.5-0.3,1.7-1.3l0.5-3.2h2.4l-0.6,4c-0.4,2.3-1.7,2.6-3.8,2.6
			h-7.6L38.6,192z"/>
		<path id="XMLID_1214_" class="st1" d="M59.6,204.8c-1.2,0.3-2.7,0.5-4.4,0.5c-3.1,0-5.2-1.3-5.2-4.7c0-2.3,0.6-5.9,2-7.7
			c1.2-1.4,2.7-1.9,4.6-1.9c2.3,0,4.1,1,4.1,3.3c0,1.2-0.5,3.4-2.2,4.5c-1,0.6-2.3,1-4.3,1c-0.5,0-1,0-1.5-0.1v0.7
			c0,2.1,1.3,2.6,3,2.6c1.2,0,2.8-0.2,4.3-0.5L59.6,204.8z M52.8,198.2c0.4,0,0.9,0.1,1.3,0.1c1.1,0,2-0.2,2.7-0.8
			c0.9-0.8,1.2-2.3,1.2-3c0-1.1-0.8-1.6-1.7-1.6c-0.8,0-1.6,0.3-2.2,1.1C53.4,195,53,196.7,52.8,198.2z"/>
		<path id="XMLID_1212_" class="st1" d="M63.5,202.4c0-0.5,0.1-1.1,0.4-3.3l0.9-5.7h-2.3l0.3-2h2.4l0.5-3.3h2.6l-0.5,3.3H72l-0.3,2
			h-4.3l-0.9,6.1c-0.2,1.5-0.3,2-0.3,2.3c0,1,0.4,1.4,1.8,1.4c0.8,0,1.9-0.1,3.2-0.2l-0.3,2c-1.1,0.2-2.4,0.3-3.8,0.3
			C64.7,205.3,63.5,204.4,63.5,202.4z"/>
		<path id="XMLID_1210_" class="st1" d="M74.9,187.4h1.5c1.1,0,1.5,0.6,1.5,1.4c0,0.7-0.2,1.9-2.1,5.8h-1.9l1.4-3.9h-0.9L74.9,187.4
			z"/>
		<path id="XMLID_1208_" class="st1" d="M81.3,200l-0.1,0.8c-0.1,0.6-0.1,0.8-0.1,1c0,1.2,0.9,1.7,2.4,1.7c1.2,0,1.8-0.2,2.2-0.6
			c0.5-0.4,0.7-1.2,0.7-1.7c0-0.7-0.3-1.1-1.5-1.6l-2.9-1.2c-1.8-0.7-2.2-1.8-2.2-3c0-0.9,0.4-2.3,1.2-3.1c0.9-0.9,2.2-1.4,4.3-1.4
			c2,0,4.2,0.5,4.2,2.7c0,0.2-0.1,0.8-0.1,1.3l-0.2,1H87l0.2-0.9c0.1-0.5,0.1-0.9,0.1-1c0-0.9-0.6-1.4-2.2-1.4
			c-1.1,0-1.8,0.3-2.1,0.8c-0.4,0.5-0.5,1.2-0.5,1.6c0,0.7,0.2,1.2,1.8,1.9l2.7,1.1c1.6,0.7,2.3,1.6,2.3,2.9c0,1-0.4,2.5-1.5,3.3
			c-0.9,0.7-2.3,1.1-4.6,1.1c-2,0-4.5-0.6-4.5-3c0-0.3,0.1-0.8,0.1-1.2l0.2-1.1H81.3z"/>
		<path id="XMLID_1206_" class="st1" d="M102,191.3c1.3,0,1.6,0.6,1.6,1.2c0,0.4-0.1,1.3-0.3,2.2c1.3-2.5,2.8-3.7,4.5-3.7
			c0.5,0,0.8,0.1,1.4,0.2l-0.4,2.7c-0.5-0.1-1-0.1-1.4-0.1c-1.4,0-2.4,0.8-3.2,1.8c-1,1.4-1.3,2.5-1.5,4l-0.8,5.4h-2.7l1.5-9.1
			c0.2-1.4,0.2-1.8,0.2-2c0-0.4-0.2-0.5-0.6-0.5h-1.7l0.3-2H102z"/>
		<path id="XMLID_1203_" class="st1" d="M119.7,204.8c-1.2,0.3-2.7,0.5-4.4,0.5c-3.1,0-5.2-1.3-5.2-4.7c0-2.3,0.6-5.9,2-7.7
			c1.2-1.4,2.7-1.9,4.6-1.9c2.3,0,4.1,1,4.1,3.3c0,1.2-0.5,3.4-2.2,4.5c-1,0.6-2.3,1-4.3,1c-0.5,0-1,0-1.5-0.1v0.7
			c0,2.1,1.3,2.6,3,2.6c1.2,0,2.8-0.2,4.3-0.5L119.7,204.8z M112.9,198.2c0.4,0,0.9,0.1,1.3,0.1c1.1,0,2-0.2,2.7-0.8
			c0.9-0.8,1.2-2.3,1.2-3c0-1.1-0.8-1.6-1.7-1.6c-0.8,0-1.6,0.3-2.2,1.1C113.5,195,113.1,196.7,112.9,198.2z"/>
		<path id="XMLID_1200_" class="st1" d="M124.8,190.6c0.2-1.4,0.2-1.8,0.2-2c0-0.4-0.2-0.5-0.6-0.5h-1.8l0.3-2h3.2
			c1.3,0,1.6,0.6,1.6,1.2c0,0.5-0.1,1.6-0.4,2.8l-0.6,3.1c1.1-1.4,2.6-2.3,4.5-2.3c1.6,0,3.3,0.8,3.3,4.1c0,2.2-0.6,6.7-2.3,8.6
			c-1,1.2-2.3,1.6-3.9,1.6c-1.4,0-2.7-0.6-3.5-1.5l-0.5,1.2h-2.1L124.8,190.6z M125.6,202.1c0.5,0.7,1.4,1.2,2.4,1.2
			c1,0,1.8-0.2,2.5-1.1c1-1.3,1.6-5,1.6-6.8c0-1.9-0.9-2.2-1.7-2.2c-1.8,0-3.5,1.7-3.8,3.7L125.6,202.1z"/>
		<path id="XMLID_1198_" class="st1" d="M140.1,191.3c1.3,0,1.6,0.6,1.6,1.2c0,0.6-0.3,1.9-0.7,4.5c-0.6,3.2-0.7,3.9-0.7,4.6
			c0,1.1,0.5,1.5,1.4,1.5c0.9,0,2-0.7,2.9-2c0.8-1.2,1.1-2.1,1.3-3.3l1-6.5h2.7l-1.3,8.1c-0.3,1.9-0.4,2.6-0.4,2.8
			c0,0.5,0.2,0.8,1,0.8h1.3l-0.3,2h-2.3c-1.9,0-2.2-0.9-2.2-2c0-0.2,0-0.4,0.1-0.9c-1.3,2-3,3.2-4.9,3.2c-2,0-3-1.3-3-3
			c0-0.9,0.1-1.7,0.6-4.4c0.5-2.6,0.6-3.5,0.6-4c0-0.4-0.2-0.5-0.6-0.5h-1.7l0.3-2H140.1z"/>
		<path id="XMLID_1195_" class="st1" d="M155.1,191.3c1.3,0,1.6,0.6,1.6,1.2c0,0.5-0.1,1.5-0.3,2.8l-0.6,4c-0.3,1.9-0.4,2.6-0.4,2.9
			c0,0.5,0.2,0.8,1,0.8h1.2l-0.3,2h-2.4c-1.9,0-2.2-1.1-2.2-2c0-0.4,0.1-1,0.4-3l0.6-4.1c0.2-1.4,0.3-1.8,0.3-2
			c0-0.4-0.2-0.5-0.6-0.5h-1.8l0.3-2H155.1z M157.3,189.4h-3.1l0.4-2.6h3.1L157.3,189.4z"/>
		<path id="XMLID_1193_" class="st1" d="M159.6,186.1h3.2c1.3,0,1.6,0.6,1.6,1.2c0,0.5-0.2,1.6-0.4,2.8l-1.5,9.2
			c-0.3,1.9-0.4,2.6-0.4,2.9c0,0.5,0.2,0.8,1,0.8h1.2l-0.3,2h-2.4c-1.9,0-2.2-1.1-2.2-2c0-0.4,0-1,0.4-3l1.5-9.3
			c0.2-1.4,0.2-1.8,0.2-2c0-0.4-0.2-0.5-0.6-0.5h-1.8L159.6,186.1z"/>
		<path id="XMLID_1190_" class="st1" d="M174.1,186.1h3c1.3,0,1.6,0.6,1.6,1.2c0,0.5-0.1,1.6-0.3,2.8l-1.5,9.2
			c-0.3,1.9-0.4,2.6-0.4,2.8c0,0.5,0.2,0.8,1,0.8h1.2l-0.3,2h-2.3c-1.9,0-2.2-0.9-2.2-2c0-0.2,0-0.4,0.1-0.9c-1.3,2-3,3.2-4.9,3.2
			c-2.1,0-3.1-1.2-3.1-3.8c0-2.5,0.6-6.6,2-8.5c1-1.4,2.4-1.9,3.8-1.9c1.5,0,2.7,0.5,3.5,1.2l0.3-1.6c0.2-1.4,0.2-1.8,0.2-2
			c0-0.4-0.2-0.5-0.6-0.5h-1.6L174.1,186.1z M174.5,197.8l0.6-3.9c-0.5-0.6-1.3-1-2.5-1c-0.9,0-1.6,0.3-2.3,1.3
			c-1,1.5-1.5,5.2-1.5,6.7c0,1.9,0.7,2.2,1.5,2.2c0.9,0,2-0.7,2.9-2C174,200,174.3,199.1,174.5,197.8z"/>
		<path id="XMLID_1187_" class="st1" d="M200.1,205c-1.8,0-2.4-0.7-2.5-2.3l-0.3-3.2h-5.5l-2.1,5.6H187l6.1-15.5h-2.3l0.4-2h5.3
			c2,0,2.7,0.4,2.9,2.4l1.1,12c0.1,0.7,0.2,1,1,1h1.4l-0.3,2H200.1z M195.5,189.5l-3,7.8h4.6l-0.6-6.9c-0.1-0.8-0.2-0.9-0.9-0.9
			H195.5z"/>
		<path id="XMLID_1185_" class="st1" d="M207.2,191.3c1.3,0,1.6,0.6,1.6,1.2c0,0.4-0.1,1.2-0.3,2.1c1.2-2.2,3.1-3.6,5-3.6
			c1.9,0,2.6,1.2,2.6,2.7c0,0.2,0,0.4-0.1,0.6c1.2-2.1,3-3.3,4.8-3.3c2,0,2.6,1.2,2.6,2.7c0,0.5-0.1,1.3-0.3,3l-0.4,2.7
			c-0.3,1.9-0.4,2.6-0.4,2.8c0,0.5,0.2,0.8,1,0.8h1.2l-0.3,2h-2.4c-1.9,0-2.2-1.1-2.2-2c0-0.4,0-1,0.4-3l0.5-3.1
			c0.2-1.3,0.2-1.8,0.2-2.1c0-1-0.5-1.4-1.2-1.4c-1.5,0-3.5,2.1-4.2,6.1l-0.9,5.4h-2.6l1.3-8.1c0.2-1.3,0.2-1.8,0.2-2.1
			c0-1-0.5-1.4-1.2-1.4c-1.5,0-3.6,2.1-4.2,6.1l-0.9,5.4h-2.7l1.3-8.5c0.2-1.6,0.3-2.1,0.3-2.5c0-0.4-0.2-0.6-0.7-0.6h-1.6l0.3-2
			H207.2z"/>
		<path id="XMLID_1182_" class="st1" d="M235.7,204.8c-1.2,0.3-2.7,0.5-4.4,0.5c-3.1,0-5.2-1.3-5.2-4.7c0-2.3,0.6-5.9,2-7.7
			c1.2-1.4,2.7-1.9,4.6-1.9c2.3,0,4.1,1,4.1,3.3c0,1.2-0.5,3.4-2.2,4.5c-1,0.6-2.3,1-4.3,1c-0.5,0-1,0-1.5-0.1v0.7
			c0,2.1,1.3,2.6,3,2.6c1.2,0,2.8-0.2,4.3-0.5L235.7,204.8z M228.9,198.2c0.4,0,0.9,0.1,1.3,0.1c1.1,0,2-0.2,2.7-0.8
			c0.9-0.8,1.2-2.3,1.2-3c0-1.1-0.8-1.6-1.7-1.6c-0.8,0-1.6,0.3-2.2,1.1C229.6,195,229.1,196.7,228.9,198.2z"/>
		<path id="XMLID_1180_" class="st1" d="M241.8,191.3c1.3,0,1.6,0.6,1.6,1.2c0,0.4-0.1,1.3-0.3,2.2c1.3-2.5,2.8-3.7,4.5-3.7
			c0.5,0,0.8,0.1,1.4,0.2l-0.4,2.7c-0.5-0.1-1-0.1-1.4-0.1c-1.4,0-2.4,0.8-3.2,1.8c-1,1.4-1.3,2.5-1.5,4l-0.8,5.4h-2.7l1.5-9.1
			c0.2-1.4,0.2-1.8,0.2-2c0-0.4-0.2-0.5-0.6-0.5h-1.7l0.3-2H241.8z"/>
		<path id="XMLID_1177_" class="st1" d="M253.2,191.3c1.3,0,1.6,0.6,1.6,1.2c0,0.5-0.1,1.5-0.3,2.8l-0.6,4c-0.3,1.9-0.4,2.6-0.4,2.9
			c0,0.5,0.2,0.8,1,0.8h1.2l-0.3,2H253c-1.9,0-2.2-1.1-2.2-2c0-0.4,0.1-1,0.4-3l0.6-4.1c0.2-1.4,0.3-1.8,0.3-2
			c0-0.4-0.2-0.5-0.6-0.5h-1.8l0.3-2H253.2z M255.4,189.4h-3.1l0.4-2.6h3.1L255.4,189.4z"/>
		<path id="XMLID_1175_" class="st1" d="M265.2,196.7l0.2-1.4c0.1-0.4,0.1-0.8,0.1-0.9c0-0.8-0.4-1.5-1.7-1.5
			c-0.9,0-1.7,0.3-2.2,1.1c-1,1.4-1.5,4.9-1.5,6.5c0,2,1.3,2.6,3.2,2.6c1.4,0,2.9-0.2,4.2-0.4l-0.4,2.1c-0.9,0.2-2.7,0.5-4.4,0.5
			c-3.1,0-5.3-1.1-5.3-4.7c0-2.2,0.6-5.9,2-7.7c1.1-1.4,2.7-1.9,4.6-1.9c2.4,0,3.9,0.9,3.9,3c0,0.2-0.1,0.8-0.2,1.6l-0.2,1.1H265.2z
			"/>
		<path id="XMLID_1172_" class="st1" d="M280.4,199.3c-0.3,1.9-0.4,2.6-0.4,2.8c0,0.5,0.2,0.8,1,0.8h1.3l-0.3,2h-2.3
			c-1.9,0-2.2-0.9-2.2-2c0-0.2,0-0.4,0.1-0.9c-1.2,2-3,3.2-4.8,3.2c-2.2,0-3.1-1.2-3.1-3.8c0-2.5,0.6-6.6,2-8.5
			c1-1.4,2.3-1.9,3.7-1.9c1.7,0,2.9,0.6,3.7,1.5l0.5-1.1h2.1L280.4,199.3z M278,197.8l0.6-3.9c-0.5-0.5-1.3-1-2.5-1
			c-0.9,0-1.6,0.3-2.3,1.3c-1,1.6-1.5,5.2-1.5,6.7c0,1.9,0.7,2.2,1.5,2.2c0.9,0,2-0.7,2.9-2C277.5,200,277.8,199,278,197.8z"/>
	</g>
</g>
</svg>
