<svg xmlns="http://www.w3.org/2000/svg" xmlns:xlink="http://www.w3.org/1999/xlink" preserveAspectRatio="xMidYMid" width="140" height="70" viewBox="0 0 140 70">
  <defs>
    <style>
      .cls-1 {
        fill: #47ad58;
      }

      .cls-2 {
        fill: #fefefe;
        fill-rule: evenodd;
      }
    </style>
  </defs>
  <g>
    <rect width="140" height="70" class="cls-1"/>
    <path d="M105.207,51.318 L101.208,53.360 C100.789,53.574 100.438,53.460 100.224,53.042 L96.311,45.633 C96.038,45.097 96.251,44.441 96.787,44.168 L100.146,42.452 C100.683,42.178 101.340,42.391 101.613,42.928 L105.526,50.335 C105.739,50.753 105.626,51.104 105.207,51.318 ZM90.600,43.290 C82.350,43.290 75.771,37.076 75.771,28.670 C75.771,20.316 82.350,13.998 90.600,13.998 C98.798,13.998 105.377,20.316 105.377,28.670 C105.377,37.076 98.798,43.290 90.600,43.290 ZM90.600,19.689 C85.379,19.689 81.880,23.396 81.880,28.670 C81.880,33.839 85.379,37.598 90.600,37.598 C95.769,37.598 99.268,33.839 99.268,28.670 C99.268,23.396 95.769,19.689 90.600,19.689 ZM74.508,32.743 C74.508,39.687 67.772,43.081 61.715,43.081 C55.502,43.081 52.160,41.410 48.818,38.069 C48.453,37.703 48.453,37.390 48.766,37.076 L51.743,33.943 C52.004,33.682 52.526,33.630 52.787,33.891 C55.241,36.345 57.486,37.390 61.507,37.390 C65.527,37.390 68.399,35.875 68.399,32.743 C68.399,29.662 65.893,28.304 61.768,28.304 C59.470,28.304 57.486,28.722 55.554,29.714 C55.241,29.871 54.928,29.923 54.614,29.871 L51.429,29.088 C51.012,28.983 50.855,28.722 50.907,28.252 L51.899,14.937 C51.951,14.468 52.212,14.207 52.630,14.207 L71.845,14.207 C72.315,14.207 72.576,14.468 72.576,14.937 L72.576,19.167 C72.576,19.637 72.315,19.898 71.845,19.898 L57.173,19.898 L56.964,23.814 C58.583,23.135 60.462,22.822 62.551,22.822 C68.973,22.822 74.508,26.007 74.508,32.743 ZM44.011,53.580 L41.639,53.580 L41.639,55.723 C41.639,55.870 41.557,55.952 41.410,55.952 L39.971,55.952 C39.824,55.952 39.742,55.870 39.742,55.723 L39.742,47.267 C39.742,47.120 39.824,47.038 39.971,47.038 L44.011,47.038 C45.989,47.038 47.478,48.461 47.478,50.293 C47.478,52.190 45.989,53.580 44.011,53.580 ZM44.011,48.837 L41.639,48.837 L41.639,51.781 L44.011,51.781 C45.008,51.781 45.581,51.160 45.581,50.293 C45.581,49.442 45.008,48.837 44.011,48.837 ZM45.077,42.663 L40.586,42.663 C40.116,42.663 39.855,42.402 39.855,41.932 L39.855,19.793 L37.731,19.793 C37.261,19.793 37.000,19.532 37.000,19.062 L37.000,14.937 C37.000,14.468 37.261,14.207 37.731,14.207 L45.077,14.207 C45.546,14.207 45.808,14.468 45.808,14.937 L45.808,41.932 C45.808,42.402 45.546,42.663 45.077,42.663 ZM54.134,46.907 C56.701,46.907 58.811,48.886 58.811,51.503 C58.811,54.136 56.701,56.082 54.134,56.082 C51.550,56.082 49.440,54.136 49.440,51.503 C49.440,48.886 51.550,46.907 54.134,46.907 ZM54.134,54.300 C55.753,54.300 56.898,53.122 56.898,51.503 C56.898,49.851 55.753,48.690 54.134,48.690 C52.498,48.690 51.353,49.851 51.353,51.503 C51.353,53.122 52.498,54.300 54.134,54.300 ZM61.493,47.038 L62.932,47.038 C63.079,47.038 63.161,47.120 63.161,47.267 L63.161,55.723 C63.161,55.870 63.079,55.952 62.932,55.952 L61.493,55.952 C61.345,55.952 61.264,55.870 61.264,55.723 L61.264,47.267 C61.264,47.120 61.345,47.038 61.493,47.038 ZM66.170,47.038 L67.429,47.038 C67.560,47.038 67.658,47.071 67.740,47.153 L70.193,50.260 L72.254,53.171 L72.335,53.155 L72.221,50.391 L72.221,47.267 C72.221,47.120 72.303,47.038 72.450,47.038 L73.840,47.038 C73.987,47.038 74.069,47.120 74.069,47.267 L74.069,55.723 C74.069,55.870 73.987,55.952 73.840,55.952 L72.499,55.952 C72.385,55.952 72.303,55.919 72.254,55.837 L70.013,53.008 L67.756,49.818 L67.674,49.835 L67.789,52.582 L67.789,55.723 C67.789,55.870 67.707,55.952 67.560,55.952 L66.170,55.952 C66.022,55.952 65.941,55.870 65.941,55.723 L65.941,47.267 C65.941,47.120 66.022,47.038 66.170,47.038 ZM76.423,47.038 L84.012,47.038 C84.159,47.038 84.241,47.120 84.241,47.267 L84.241,48.608 C84.241,48.755 84.159,48.837 84.012,48.837 L81.166,48.837 L81.166,55.723 C81.166,55.870 81.084,55.952 80.937,55.952 L79.498,55.952 C79.351,55.952 79.269,55.870 79.269,55.723 L79.269,48.837 L76.423,48.837 C76.276,48.837 76.194,48.755 76.194,48.608 L76.194,47.267 C76.194,47.120 76.276,47.038 76.423,47.038 ZM86.383,53.351 C86.481,53.220 86.595,53.204 86.710,53.302 C87.609,54.005 88.460,54.316 89.752,54.316 C91.126,54.316 91.747,53.907 91.747,53.302 C91.747,52.664 91.126,52.386 89.474,52.239 C87.282,52.059 85.827,51.405 85.827,49.557 C85.827,47.938 87.380,46.907 89.523,46.907 C90.962,46.907 92.303,47.398 93.350,48.265 C93.464,48.347 93.481,48.445 93.399,48.559 L92.581,49.573 C92.483,49.688 92.369,49.704 92.238,49.589 C91.502,49.001 90.553,48.674 89.425,48.674 C88.312,48.674 87.708,48.984 87.708,49.491 C87.708,50.015 88.198,50.276 89.686,50.424 C91.976,50.636 93.628,51.405 93.628,53.269 C93.628,55.052 91.960,56.082 89.719,56.082 C88.084,56.082 86.808,55.690 85.630,54.709 C85.516,54.627 85.516,54.512 85.614,54.381 L86.383,53.351 Z" class="cls-2"/>
  </g>
</svg>
