<svg xmlns="http://www.w3.org/2000/svg" xmlns:xlink="http://www.w3.org/1999/xlink" preserveAspectRatio="xMidYMid" width="110.188" height="81.906" viewBox="0 0 110.188 81.906">
  <defs>
    <style>
      .cls-1 {
        fill: #fefefe;
        fill-rule: evenodd;
      }
    </style>
  </defs>
  <path d="M109.207,80.564 C109.207,80.771 109.276,80.887 109.634,80.887 L110.176,80.887 L110.038,81.752 L109.034,81.752 C108.226,81.752 108.110,81.348 108.110,80.898 C108.110,80.817 108.110,80.714 108.134,80.529 C107.603,81.394 106.853,81.891 106.068,81.891 C105.145,81.891 104.742,81.360 104.742,80.252 C104.742,79.191 105.018,77.437 105.607,76.594 C106.034,75.994 106.611,75.764 107.211,75.764 C107.926,75.764 108.468,76.006 108.791,76.387 L109.022,75.902 L109.911,75.902 L109.368,79.352 C109.241,80.160 109.207,80.448 109.207,80.564 ZM107.522,76.606 C107.153,76.606 106.830,76.733 106.553,77.160 C106.126,77.829 105.895,79.387 105.895,80.033 C105.895,80.864 106.184,80.991 106.518,80.991 C106.899,80.991 107.372,80.702 107.776,80.113 C108.134,79.617 108.261,79.214 108.341,78.695 L108.595,77.021 C108.388,76.790 108.041,76.606 107.522,76.606 ZM108.965,59.613 L102.577,62.875 C101.909,63.217 101.347,63.035 101.006,62.366 L94.755,50.532 C94.319,49.675 94.659,48.628 95.515,48.191 L100.881,45.450 C101.738,45.012 102.788,45.353 103.225,46.211 L109.474,58.042 C109.816,58.710 109.634,59.272 108.965,59.613 ZM85.632,46.789 C72.454,46.789 61.945,36.863 61.945,23.434 C61.945,10.089 72.454,-0.003 85.632,-0.003 C98.727,-0.003 109.236,10.089 109.236,23.434 C109.236,36.863 98.727,46.789 85.632,46.789 ZM85.632,9.089 C77.291,9.089 71.703,15.010 71.703,23.434 C71.703,31.692 77.291,37.697 85.632,37.697 C93.890,37.697 99.478,31.692 99.478,23.434 C99.478,15.010 93.890,9.089 85.632,9.089 ZM64.396,76.294 L64.512,75.614 C64.604,75.014 64.615,74.852 64.615,74.748 C64.615,74.598 64.546,74.541 64.362,74.541 L63.692,74.541 L63.831,73.675 L65.123,73.675 C65.688,73.675 65.816,73.918 65.816,74.206 C65.816,74.437 65.758,74.887 65.677,75.418 L65.042,79.352 C64.915,80.160 64.892,80.448 64.892,80.564 C64.892,80.771 64.962,80.887 65.319,80.887 L65.850,80.887 L65.723,81.752 L64.719,81.752 C63.912,81.752 63.796,81.348 63.796,80.898 C63.796,80.817 63.796,80.714 63.819,80.518 C63.277,81.383 62.527,81.891 61.742,81.891 C60.831,81.891 60.415,81.360 60.415,80.252 C60.415,79.191 60.692,77.425 61.281,76.594 C61.708,75.994 62.296,75.764 62.896,75.764 C63.554,75.764 64.061,75.971 64.396,76.294 ZM62.227,77.160 C61.789,77.817 61.569,79.387 61.569,80.033 C61.569,80.864 61.869,80.991 62.204,80.991 C62.585,80.991 63.046,80.702 63.450,80.113 C63.808,79.617 63.923,79.225 64.004,78.706 L64.281,77.021 C64.073,76.779 63.727,76.606 63.196,76.606 C62.827,76.606 62.504,76.733 62.227,77.160 ZM59.927,29.940 C59.927,41.034 49.167,46.455 39.492,46.455 C29.566,46.455 24.228,43.786 18.890,38.448 C18.306,37.864 18.306,37.363 18.807,36.863 L23.561,31.858 C23.978,31.442 24.812,31.358 25.229,31.775 C29.149,35.696 32.736,37.363 39.158,37.363 C45.580,37.363 50.168,34.945 50.168,29.940 C50.168,25.019 46.164,22.851 39.575,22.851 C35.905,22.851 32.736,23.518 29.650,25.103 C29.149,25.353 28.649,25.436 28.149,25.353 L23.060,24.102 C22.393,23.935 22.143,23.518 22.226,22.767 L23.811,1.498 C23.895,0.748 24.311,0.331 24.979,0.331 L55.673,0.331 C56.423,0.331 56.840,0.748 56.840,1.498 L56.840,8.254 C56.840,9.005 56.423,9.422 55.673,9.422 L32.235,9.422 L31.902,15.678 C34.487,14.593 37.490,14.093 40.826,14.093 C51.085,14.093 59.927,19.181 59.927,29.940 ZM18.317,75.902 L20.140,75.902 L20.013,76.768 L18.178,76.768 L17.774,79.364 C17.670,80.021 17.659,80.229 17.659,80.368 C17.659,80.783 17.832,80.979 18.432,80.979 C18.778,80.979 19.251,80.944 19.782,80.875 L19.643,81.752 C19.193,81.821 18.605,81.891 18.016,81.891 C17.013,81.891 16.482,81.533 16.482,80.656 C16.482,80.448 16.505,80.171 16.655,79.225 L17.047,76.768 L16.043,76.768 L16.170,75.902 L17.186,75.902 L17.417,74.471 L18.547,74.471 L18.317,75.902 ZM11.210,63.226 L7.422,63.226 L7.422,66.649 C7.422,66.884 7.291,67.014 7.056,67.014 L4.757,67.014 C4.522,67.014 4.391,66.884 4.391,66.649 L4.391,53.142 C4.391,52.907 4.522,52.776 4.757,52.776 L11.210,52.776 C14.371,52.776 16.748,55.049 16.748,57.975 C16.748,61.005 14.371,63.226 11.210,63.226 ZM11.210,55.650 L7.422,55.650 L7.422,60.353 L11.210,60.353 C12.803,60.353 13.718,59.360 13.718,57.975 C13.718,56.616 12.803,55.650 11.210,55.650 ZM12.913,45.788 L5.740,45.788 C4.989,45.788 4.572,45.370 4.572,44.620 L4.572,9.255 L1.179,9.255 C0.429,9.255 0.012,8.838 0.012,8.088 L0.012,1.498 C0.012,0.748 0.429,0.331 1.179,0.331 L12.913,0.331 C13.663,0.331 14.080,0.748 14.080,1.498 L14.080,44.620 C14.080,45.370 13.663,45.788 12.913,45.788 ZM5.660,75.129 L4.841,75.129 L4.991,74.252 L6.364,74.252 C7.068,74.252 7.172,74.610 7.172,74.910 C7.172,75.083 7.126,75.383 7.022,76.052 L6.272,80.875 L8.083,80.875 C8.510,80.875 8.729,80.760 8.810,80.298 L9.041,78.925 L10.079,78.925 L9.803,80.621 C9.641,81.613 9.075,81.752 8.187,81.752 L4.945,81.752 L5.810,76.202 C5.902,75.614 5.926,75.429 5.926,75.337 C5.926,75.187 5.845,75.129 5.660,75.129 ZM13.506,75.764 C14.487,75.764 15.248,76.191 15.248,77.195 C15.248,77.725 15.017,78.671 14.302,79.133 C13.875,79.398 13.298,79.560 12.467,79.560 C12.260,79.560 12.029,79.548 11.833,79.537 L11.833,79.848 C11.833,80.760 12.375,80.967 13.137,80.967 C13.656,80.967 14.325,80.887 14.960,80.771 L14.810,81.671 C14.314,81.787 13.656,81.891 12.917,81.891 C11.579,81.891 10.679,81.348 10.679,79.871 C10.679,78.879 10.944,77.345 11.556,76.583 C12.052,75.971 12.721,75.764 13.506,75.764 ZM12.444,78.902 C12.906,78.902 13.321,78.810 13.598,78.579 C13.991,78.233 14.129,77.587 14.129,77.275 C14.129,76.790 13.806,76.594 13.402,76.594 C13.056,76.594 12.733,76.722 12.479,77.079 C12.179,77.506 11.994,78.233 11.902,78.879 C12.075,78.891 12.283,78.902 12.444,78.902 ZM21.143,75.648 L21.362,74.252 L22.020,74.252 C22.482,74.252 22.655,74.529 22.655,74.852 C22.655,75.152 22.562,75.683 21.743,77.333 L20.935,77.333 L21.547,75.648 L21.143,75.648 ZM23.081,79.641 L24.097,79.641 L24.039,79.998 C24.004,80.264 23.993,80.356 23.993,80.425 C23.993,80.944 24.397,81.140 25.020,81.140 C25.516,81.140 25.782,81.037 25.978,80.875 C26.197,80.702 26.289,80.344 26.289,80.160 C26.289,79.848 26.151,79.687 25.632,79.467 L24.397,78.960 C23.624,78.648 23.462,78.198 23.462,77.691 C23.462,77.298 23.624,76.722 23.982,76.352 C24.351,75.983 24.904,75.764 25.805,75.764 C26.681,75.764 27.616,75.994 27.616,76.906 C27.616,77.010 27.593,77.241 27.558,77.471 L27.489,77.898 L26.543,77.898 L26.612,77.518 C26.647,77.287 26.658,77.148 26.658,77.091 C26.658,76.722 26.404,76.502 25.735,76.502 C25.251,76.502 24.985,76.629 24.824,76.825 C24.651,77.056 24.593,77.345 24.593,77.506 C24.593,77.817 24.685,78.025 25.354,78.302 L26.508,78.775 C27.212,79.064 27.478,79.444 27.478,80.010 C27.478,80.425 27.293,81.094 26.843,81.440 C26.439,81.752 25.874,81.891 24.893,81.891 C24.039,81.891 22.955,81.648 22.955,80.621 C22.955,80.506 22.978,80.298 23.012,80.113 L23.081,79.641 ZM27.380,67.223 C23.253,67.223 19.883,64.114 19.883,59.908 C19.883,55.728 23.253,52.567 27.380,52.567 C31.482,52.567 34.852,55.728 34.852,59.908 C34.852,64.114 31.482,67.223 27.380,67.223 ZM27.380,55.415 C24.768,55.415 22.939,57.270 22.939,59.908 C22.939,62.495 24.768,64.376 27.380,64.376 C29.967,64.376 31.796,62.495 31.796,59.908 C31.796,57.270 29.967,55.415 27.380,55.415 ZM32.242,76.768 L31.503,76.768 L31.642,75.902 L32.957,75.902 C33.522,75.902 33.661,76.144 33.661,76.433 C33.661,76.617 33.603,76.975 33.546,77.368 C34.100,76.294 34.734,75.764 35.473,75.764 C35.669,75.764 35.830,75.787 36.061,75.844 L35.876,76.987 C35.657,76.952 35.450,76.941 35.277,76.941 C34.688,76.941 34.261,77.264 33.926,77.714 C33.488,78.325 33.384,78.787 33.280,79.444 L32.923,81.752 L31.780,81.752 L32.403,77.841 C32.496,77.241 32.507,77.079 32.507,76.975 C32.507,76.825 32.427,76.768 32.242,76.768 ZM39.234,75.764 C40.214,75.764 40.976,76.191 40.976,77.195 C40.976,77.725 40.745,78.671 40.030,79.133 C39.603,79.398 39.026,79.560 38.195,79.560 C37.987,79.560 37.757,79.548 37.560,79.537 L37.560,79.848 C37.560,80.760 38.103,80.967 38.864,80.967 C39.383,80.967 40.053,80.887 40.687,80.771 L40.537,81.671 C40.041,81.787 39.383,81.891 38.645,81.891 C37.307,81.891 36.407,81.348 36.407,79.871 C36.407,78.879 36.672,77.345 37.284,76.583 C37.780,75.971 38.449,75.764 39.234,75.764 ZM38.172,78.902 C38.634,78.902 39.049,78.810 39.326,78.579 C39.718,78.233 39.857,77.587 39.857,77.275 C39.857,76.790 39.533,76.594 39.130,76.594 C38.784,76.594 38.461,76.722 38.207,77.079 C37.907,77.506 37.722,78.233 37.630,78.879 C37.803,78.891 38.010,78.902 38.172,78.902 ZM38.770,66.649 L38.770,53.142 C38.770,52.907 38.900,52.776 39.136,52.776 L41.435,52.776 C41.670,52.776 41.800,52.907 41.800,53.142 L41.800,66.649 C41.800,66.884 41.670,67.014 41.435,67.014 L39.136,67.014 C38.900,67.014 38.770,66.884 38.770,66.649 ZM42.845,74.748 C42.845,74.598 42.764,74.541 42.579,74.541 L41.829,74.541 L41.968,73.675 L43.352,73.675 C43.918,73.675 44.056,73.918 44.056,74.206 C44.056,74.437 43.999,74.887 43.906,75.418 L43.664,76.733 C44.149,76.133 44.772,75.764 45.602,75.764 C46.272,75.764 47.033,76.121 47.033,77.529 C47.033,78.475 46.768,80.391 46.052,81.221 C45.614,81.729 45.071,81.891 44.391,81.891 C43.779,81.891 43.248,81.648 42.879,81.256 L42.649,81.752 L41.760,81.752 L42.741,75.614 C42.833,75.014 42.845,74.852 42.845,74.748 ZM44.125,81.025 C44.541,81.025 44.898,80.921 45.175,80.541 C45.591,79.964 45.845,78.383 45.845,77.644 C45.845,76.837 45.464,76.687 45.106,76.687 C44.333,76.687 43.606,77.425 43.468,78.256 L43.099,80.529 C43.329,80.829 43.710,81.025 44.125,81.025 ZM48.498,76.768 L47.759,76.768 L47.898,75.902 L49.282,75.902 C49.848,75.902 49.986,76.144 49.986,76.433 C49.986,76.710 49.871,77.252 49.675,78.360 C49.432,79.710 49.375,80.021 49.375,80.344 C49.375,80.794 49.605,80.991 49.963,80.991 C50.332,80.991 50.805,80.702 51.209,80.113 C51.567,79.617 51.694,79.214 51.774,78.695 L52.213,75.902 L53.355,75.902 L52.813,79.352 C52.686,80.160 52.651,80.448 52.651,80.564 C52.651,80.771 52.721,80.887 53.078,80.887 L53.621,80.887 L53.482,81.752 L52.478,81.752 C51.671,81.752 51.555,81.348 51.555,80.898 C51.555,80.817 51.555,80.714 51.579,80.518 C51.036,81.383 50.286,81.891 49.501,81.891 C48.625,81.891 48.209,81.337 48.209,80.587 C48.209,80.218 48.267,79.848 48.486,78.706 C48.705,77.575 48.763,77.206 48.763,76.975 C48.763,76.825 48.682,76.768 48.498,76.768 ZM54.947,76.768 L54.197,76.768 L54.336,75.902 L55.709,75.902 C56.285,75.902 56.412,76.144 56.412,76.433 C56.412,76.664 56.366,77.091 56.274,77.644 L55.997,79.341 C55.870,80.137 55.847,80.448 55.847,80.564 C55.847,80.760 55.916,80.887 56.262,80.887 L56.770,80.887 L56.632,81.752 L55.616,81.752 C54.785,81.752 54.659,81.302 54.659,80.887 C54.659,80.714 54.682,80.460 54.820,79.606 L55.097,77.841 C55.189,77.241 55.213,77.079 55.213,76.975 C55.213,76.825 55.132,76.768 54.947,76.768 ZM55.328,75.095 L55.501,73.987 L56.828,73.987 L56.643,75.095 L55.328,75.095 ZM56.273,53.142 C56.273,52.907 56.404,52.776 56.639,52.776 L58.860,52.776 C59.095,52.776 59.225,52.907 59.225,53.142 L59.225,66.649 C59.225,66.884 59.095,67.014 58.860,67.014 L56.717,67.014 C56.535,67.014 56.404,66.962 56.325,66.832 L52.746,62.312 L49.141,57.217 L49.010,57.244 L49.193,61.633 L49.193,66.649 C49.193,66.884 49.063,67.014 48.827,67.014 L46.607,67.014 C46.372,67.014 46.241,66.884 46.241,66.649 L46.241,53.142 C46.241,52.907 46.372,52.776 46.607,52.776 L48.619,52.776 C48.827,52.776 48.984,52.828 49.115,52.959 L53.034,57.923 L56.325,62.573 L56.456,62.547 L56.273,58.132 L56.273,53.142 ZM58.258,74.541 L57.508,74.541 L57.646,73.675 L59.031,73.675 C59.596,73.675 59.735,73.918 59.735,74.206 C59.735,74.437 59.666,74.887 59.585,75.418 L58.962,79.341 C58.835,80.137 58.800,80.448 58.800,80.564 C58.800,80.760 58.881,80.887 59.227,80.887 L59.735,80.887 L59.596,81.752 L58.570,81.752 C57.750,81.752 57.623,81.302 57.623,80.887 C57.623,80.714 57.635,80.460 57.773,79.606 L58.420,75.614 C58.512,75.014 58.523,74.852 58.523,74.748 C58.523,74.598 58.442,74.541 58.258,74.541 ZM62.620,55.284 L62.620,53.142 C62.620,52.907 62.751,52.776 62.986,52.776 L75.108,52.776 C75.343,52.776 75.474,52.907 75.474,53.142 L75.474,55.284 C75.474,55.519 75.343,55.650 75.108,55.650 L70.562,55.650 L70.562,66.649 C70.562,66.884 70.432,67.014 70.197,67.014 L67.897,67.014 C67.662,67.014 67.532,66.884 67.532,66.649 L67.532,55.650 L62.986,55.650 C62.751,55.650 62.620,55.519 62.620,55.284 ZM70.949,75.129 L71.099,74.252 L73.361,74.252 C74.237,74.252 74.515,74.402 74.595,75.291 L75.080,80.448 C75.103,80.737 75.161,80.875 75.518,80.875 L76.107,80.875 L75.968,81.752 L74.976,81.752 C74.214,81.752 73.961,81.464 73.903,80.748 L73.776,79.364 L71.434,79.364 L70.534,81.752 L69.345,81.752 L71.941,75.129 L70.949,75.129 ZM71.722,78.487 L73.707,78.487 L73.453,75.521 C73.418,75.175 73.349,75.129 73.049,75.129 L73.003,75.129 L71.722,78.487 ZM77.237,76.768 L76.544,76.768 L76.683,75.902 L77.998,75.902 C78.564,75.902 78.702,76.144 78.702,76.433 C78.702,76.606 78.645,76.952 78.587,77.321 C79.106,76.364 79.902,75.764 80.710,75.764 C81.540,75.764 81.829,76.294 81.829,76.941 C81.829,77.010 81.818,77.091 81.806,77.195 C82.325,76.306 83.098,75.764 83.860,75.764 C84.702,75.764 84.979,76.294 84.979,76.941 C84.979,77.160 84.956,77.518 84.840,78.210 L84.667,79.352 C84.540,80.160 84.506,80.448 84.506,80.564 C84.506,80.760 84.575,80.887 84.933,80.887 L85.441,80.887 L85.302,81.752 L84.275,81.752 C83.445,81.752 83.329,81.302 83.329,80.887 C83.329,80.714 83.340,80.460 83.479,79.606 L83.687,78.290 C83.768,77.737 83.779,77.506 83.779,77.402 C83.779,76.987 83.583,76.814 83.271,76.814 C82.625,76.814 81.760,77.702 81.483,79.433 L81.114,81.752 L79.983,81.752 L80.525,78.290 C80.618,77.737 80.629,77.506 80.629,77.402 C80.629,76.987 80.433,76.814 80.122,76.814 C79.475,76.814 78.598,77.702 78.333,79.433 L77.964,81.752 L76.822,81.752 L77.398,78.106 C77.502,77.425 77.537,77.195 77.537,77.021 C77.537,76.848 77.445,76.768 77.237,76.768 ZM84.173,58.184 C87.830,58.524 90.469,59.752 90.469,62.730 C90.469,65.577 87.804,67.223 84.225,67.223 C81.612,67.223 79.575,66.597 77.693,65.029 C77.511,64.898 77.511,64.715 77.668,64.506 L78.895,62.861 C79.052,62.652 79.235,62.625 79.418,62.782 C80.855,63.905 82.213,64.402 84.277,64.402 C86.472,64.402 87.465,63.749 87.465,62.782 C87.465,61.763 86.472,61.319 83.833,61.084 C80.332,60.797 78.007,59.752 78.007,56.800 C78.007,54.213 80.489,52.567 83.911,52.567 C86.210,52.567 88.353,53.351 90.025,54.736 C90.208,54.866 90.234,55.023 90.103,55.206 L88.797,56.825 C88.640,57.008 88.457,57.035 88.248,56.852 C87.073,55.911 85.557,55.388 83.755,55.388 C81.978,55.388 81.012,55.885 81.012,56.695 C81.012,57.531 81.795,57.949 84.173,58.184 ZM88.913,75.764 C89.894,75.764 90.655,76.191 90.655,77.195 C90.655,77.725 90.424,78.671 89.709,79.133 C89.282,79.398 88.705,79.560 87.875,79.560 C87.667,79.560 87.436,79.548 87.240,79.537 L87.240,79.848 C87.240,80.760 87.782,80.967 88.544,80.967 C89.063,80.967 89.732,80.887 90.367,80.771 L90.217,81.671 C89.721,81.787 89.063,81.891 88.324,81.891 C86.986,81.891 86.086,81.348 86.086,79.871 C86.086,78.879 86.351,77.345 86.963,76.583 C87.459,75.971 88.128,75.764 88.913,75.764 ZM87.851,78.902 C88.313,78.902 88.728,78.810 89.005,78.579 C89.398,78.233 89.536,77.587 89.536,77.275 C89.536,76.790 89.213,76.594 88.809,76.594 C88.463,76.594 88.140,76.722 87.886,77.079 C87.586,77.506 87.402,78.233 87.309,78.879 C87.482,78.891 87.690,78.902 87.851,78.902 ZM92.120,76.768 L91.381,76.768 L91.520,75.902 L92.835,75.902 C93.400,75.902 93.539,76.144 93.539,76.433 C93.539,76.617 93.481,76.975 93.424,77.368 C93.978,76.294 94.612,75.764 95.351,75.764 C95.547,75.764 95.708,75.787 95.939,75.844 L95.754,76.987 C95.535,76.952 95.328,76.941 95.155,76.941 C94.566,76.941 94.139,77.264 93.805,77.714 C93.366,78.325 93.262,78.787 93.158,79.444 L92.801,81.752 L91.658,81.752 L92.281,77.841 C92.374,77.241 92.385,77.079 92.385,76.975 C92.385,76.825 92.304,76.768 92.120,76.768 ZM97.346,75.095 L97.519,73.987 L98.846,73.987 L98.662,75.095 L97.346,75.095 ZM96.965,76.768 L96.215,76.768 L96.354,75.902 L97.727,75.902 C98.304,75.902 98.431,76.144 98.431,76.433 C98.431,76.664 98.385,77.091 98.292,77.644 L98.015,79.341 C97.888,80.137 97.865,80.448 97.865,80.564 C97.865,80.760 97.935,80.887 98.281,80.887 L98.788,80.887 L98.650,81.752 L97.635,81.752 C96.804,81.752 96.677,81.302 96.677,80.887 C96.677,80.714 96.700,80.460 96.839,79.606 L97.115,77.841 C97.208,77.241 97.231,77.079 97.231,76.975 C97.231,76.825 97.150,76.768 96.965,76.768 ZM102.296,75.764 C103.311,75.764 103.957,76.133 103.957,77.056 C103.957,77.148 103.934,77.379 103.876,77.737 L103.796,78.222 L102.826,78.222 L102.930,77.610 C102.953,77.425 102.965,77.275 102.965,77.218 C102.965,76.860 102.803,76.594 102.238,76.594 C101.846,76.594 101.523,76.733 101.292,77.056 C100.853,77.644 100.634,79.133 100.634,79.848 C100.634,80.725 101.199,80.967 101.984,80.967 C102.596,80.967 103.230,80.887 103.761,80.794 L103.611,81.694 C103.219,81.787 102.457,81.891 101.730,81.891 C100.392,81.891 99.469,81.417 99.469,79.871 C99.469,78.914 99.722,77.333 100.346,76.560 C100.830,75.948 101.511,75.764 102.296,75.764 Z" class="cls-1"/>
</svg>
