<svg xmlns="http://www.w3.org/2000/svg" xmlns:xlink="http://www.w3.org/1999/xlink" preserveAspectRatio="xMidYMid" width="123" height="89.5" viewBox="0 0 123 89.5">
  <defs>
    <style>
      .cls-1 {
        fill: #fff;
        fill-rule: evenodd;
      }
    </style>
  </defs>
  <path d="M121.891,87.996 C121.891,88.229 121.969,88.359 122.372,88.359 L122.981,88.359 L122.826,89.332 L121.696,89.332 C120.787,89.332 120.657,88.878 120.657,88.371 C120.657,88.280 120.657,88.164 120.684,87.956 C120.086,88.930 119.242,89.489 118.359,89.489 C117.320,89.489 116.867,88.891 116.867,87.645 C116.867,86.451 117.177,84.477 117.840,83.528 C118.320,82.853 118.970,82.594 119.645,82.594 C120.450,82.594 121.059,82.866 121.423,83.295 L121.683,82.749 L122.683,82.749 L122.072,86.632 C121.929,87.541 121.891,87.865 121.891,87.996 ZM119.995,83.542 C119.580,83.542 119.216,83.685 118.904,84.165 C118.424,84.918 118.164,86.671 118.164,87.398 C118.164,88.333 118.489,88.476 118.865,88.476 C119.294,88.476 119.826,88.151 120.281,87.488 C120.684,86.930 120.827,86.476 120.917,85.892 L121.202,84.009 C120.969,83.749 120.579,83.542 119.995,83.542 ZM122.619,67.076 L115.430,70.746 C114.679,71.131 114.046,70.926 113.662,70.174 L106.628,56.857 C106.137,55.892 106.520,54.714 107.483,54.222 L113.522,51.138 C114.486,50.645 115.668,51.029 116.159,51.994 L123.192,65.308 C123.576,66.059 123.372,66.692 122.619,67.076 ZM96.362,52.645 C81.533,52.645 69.707,41.475 69.707,26.363 C69.707,11.346 81.533,-0.011 96.362,-0.011 C111.098,-0.011 122.924,11.346 122.924,26.363 C122.924,41.475 111.098,52.645 96.362,52.645 ZM96.362,10.221 C86.976,10.221 80.688,16.884 80.688,26.363 C80.688,35.656 86.976,42.413 96.362,42.413 C105.655,42.413 111.943,35.656 111.943,26.363 C111.943,16.884 105.655,10.221 96.362,10.221 ZM71.465,83.191 L71.595,82.425 C71.699,81.750 71.711,81.568 71.711,81.451 C71.711,81.282 71.634,81.218 71.427,81.218 L70.673,81.218 L71.829,80.243 L73.283,80.243 C73.919,80.243 73.063,80.517 73.063,80.841 C73.063,81.101 72.998,81.607 72.906,82.205 L72.192,86.632 C72.049,87.541 72.023,87.865 72.023,87.996 C72.023,88.229 72.102,88.359 72.504,88.359 L73.101,88.359 L72.958,89.332 L71.828,89.332 C70.920,89.332 70.790,88.878 70.790,88.371 C70.790,88.280 70.790,88.164 70.816,87.944 C70.206,88.917 69.362,89.489 68.478,89.489 C67.453,89.489 66.985,88.891 66.985,87.645 C66.985,86.451 67.297,84.463 67.960,83.528 C68.440,82.853 69.102,82.594 69.777,82.594 C70.517,82.594 71.088,82.827 71.465,83.191 ZM69.024,84.165 C68.531,84.904 68.284,86.671 68.284,87.398 C68.284,88.333 68.621,88.476 68.998,88.476 C69.427,88.476 69.946,88.151 70.400,87.488 C70.803,86.930 70.933,86.489 71.024,85.905 L71.336,84.009 C71.101,83.736 70.712,83.542 70.115,83.542 C69.699,83.542 69.336,83.685 69.024,84.165 ZM67.436,33.684 C67.436,46.169 55.328,52.269 44.440,52.269 C33.271,52.269 27.264,49.265 21.257,43.258 C20.600,42.601 20.600,42.038 21.163,41.475 L26.513,35.843 C26.982,35.375 27.921,35.280 28.390,35.749 C32.801,40.162 36.838,42.038 44.064,42.038 C51.291,42.038 56.454,39.317 56.454,33.684 C56.454,28.147 51.948,25.707 44.534,25.707 C40.404,25.707 36.838,26.458 33.365,28.241 C32.801,28.523 32.239,28.616 31.676,28.523 L25.949,27.115 C25.199,26.927 24.917,26.458 25.011,25.613 L26.794,1.678 C26.889,0.834 27.357,0.365 28.109,0.365 L62.649,0.365 C63.493,0.365 63.962,0.834 63.962,1.678 L63.962,9.281 C63.962,10.126 63.493,10.595 62.649,10.595 L36.274,10.595 L35.899,17.635 C38.808,16.414 42.187,15.852 45.941,15.852 C57.486,15.852 67.436,21.577 67.436,33.684 ZM19.612,82.749 L21.663,82.749 L21.520,83.724 L19.456,83.724 L19.001,86.645 C18.884,87.385 18.872,87.619 18.872,87.775 C18.872,88.242 19.066,88.463 19.741,88.463 C20.131,88.463 20.663,88.423 21.261,88.346 L21.104,89.332 C20.598,89.410 19.936,89.489 19.273,89.489 C18.145,89.489 17.547,89.086 17.547,88.099 C17.547,87.865 17.573,87.553 17.742,86.489 L18.183,83.724 L17.053,83.724 L17.196,82.749 L18.339,82.749 L18.599,81.139 L19.871,81.139 L19.612,82.749 ZM12.646,71.141 L8.383,71.141 L8.383,74.993 C8.383,75.258 8.236,75.404 7.971,75.404 L5.384,75.404 C5.120,75.404 4.972,75.258 4.972,74.993 L4.972,59.794 C4.972,59.529 5.120,59.382 5.384,59.382 L12.646,59.382 C16.203,59.382 18.878,61.940 18.878,65.232 C18.878,68.642 16.203,71.141 12.646,71.141 ZM12.646,62.616 L8.383,62.616 L8.383,67.908 L12.646,67.908 C14.438,67.908 15.468,66.791 15.468,65.232 C15.468,63.703 14.438,62.616 12.646,62.616 ZM14.531,51.518 L6.459,51.518 C5.614,51.518 5.145,51.048 5.145,50.204 L5.145,10.407 L1.326,10.407 C0.482,10.407 0.013,9.938 0.013,9.094 L0.013,1.678 C0.013,0.834 0.482,0.365 1.326,0.365 L14.531,0.365 C15.375,0.365 15.844,0.834 15.844,1.678 L15.844,50.204 C15.844,51.048 15.375,51.518 14.531,51.518 ZM5.369,81.880 L4.447,81.880 L4.616,80.893 L6.161,80.893 C6.953,80.893 7.070,81.296 7.070,81.633 C7.070,81.828 7.019,82.165 6.902,82.918 L6.058,88.346 L8.096,88.346 C8.576,88.346 8.823,88.216 8.914,87.696 L9.174,86.151 L10.342,86.151 L10.031,88.060 C9.849,89.176 9.212,89.332 8.213,89.332 L4.564,89.332 L5.538,83.087 C5.641,82.425 5.668,82.217 5.668,82.114 C5.668,81.945 5.577,81.880 5.369,81.880 ZM14.198,82.594 C15.302,82.594 16.158,83.075 16.158,84.204 C16.158,84.801 15.898,85.865 15.094,86.385 C14.613,86.684 13.964,86.866 13.029,86.866 C12.796,86.866 12.536,86.852 12.315,86.840 L12.315,87.190 C12.315,88.216 12.925,88.449 13.783,88.449 C14.367,88.449 15.120,88.359 15.834,88.229 L15.666,89.241 C15.107,89.372 14.367,89.489 13.535,89.489 C12.030,89.489 11.017,88.878 11.017,87.216 C11.017,86.099 11.315,84.373 12.004,83.516 C12.562,82.827 13.315,82.594 14.198,82.594 ZM13.003,86.125 C13.523,86.125 13.990,86.022 14.302,85.762 C14.744,85.373 14.899,84.646 14.899,84.294 C14.899,83.749 14.536,83.528 14.081,83.528 C13.692,83.528 13.328,83.672 13.042,84.074 C12.705,84.554 12.497,85.373 12.393,86.099 C12.588,86.113 12.822,86.125 13.003,86.125 ZM22.792,82.464 L23.039,80.893 L23.779,80.893 C24.299,80.893 24.494,81.204 24.494,81.568 C24.494,81.905 24.389,82.503 23.467,84.360 L22.558,84.360 L23.247,82.464 L22.792,82.464 ZM24.973,86.957 L26.116,86.957 L26.051,87.359 C26.012,87.658 25.999,87.762 25.999,87.839 C25.999,88.423 26.454,88.644 27.155,88.644 C27.713,88.644 28.012,88.528 28.233,88.346 C28.479,88.151 28.583,87.748 28.583,87.541 C28.583,87.190 28.428,87.009 27.844,86.761 L26.454,86.191 C25.584,85.840 25.402,85.333 25.402,84.763 C25.402,84.320 25.584,83.672 25.987,83.256 C26.402,82.841 27.024,82.594 28.038,82.594 C29.024,82.594 30.076,82.853 30.076,83.879 C30.076,83.996 30.050,84.256 30.011,84.515 L29.933,84.996 L28.869,84.996 L28.946,84.568 C28.986,84.308 28.998,84.152 28.998,84.087 C28.998,83.672 28.712,83.425 27.959,83.425 C27.415,83.425 27.116,83.568 26.934,83.788 C26.740,84.048 26.674,84.373 26.674,84.554 C26.674,84.904 26.778,85.138 27.531,85.450 L28.829,85.982 C29.622,86.308 29.921,86.735 29.921,87.372 C29.921,87.839 29.713,88.592 29.206,88.981 C28.752,89.332 28.116,89.489 27.012,89.489 C26.051,89.489 24.831,89.215 24.831,88.060 C24.831,87.930 24.857,87.696 24.895,87.488 L24.973,86.957 ZM30.998,75.639 C26.354,75.639 22.562,72.141 22.562,67.408 C22.562,62.704 26.354,59.147 30.998,59.147 C35.614,59.147 39.406,62.704 39.406,67.408 C39.406,72.141 35.614,75.639 30.998,75.639 ZM30.998,62.352 C28.059,62.352 26.001,64.439 26.001,67.408 C26.001,70.319 28.059,72.435 30.998,72.435 C33.909,72.435 35.967,70.319 35.967,67.408 C35.967,64.439 33.909,62.352 30.998,62.352 ZM35.282,83.724 L34.450,83.724 L34.607,82.749 L36.086,82.749 C36.722,82.749 36.879,83.022 36.879,83.347 C36.879,83.554 36.813,83.957 36.749,84.399 C37.373,83.191 38.086,82.594 38.918,82.594 C39.138,82.594 39.319,82.620 39.579,82.684 L39.371,83.970 C39.125,83.931 38.892,83.919 38.697,83.919 C38.034,83.919 37.554,84.282 37.177,84.788 C36.684,85.476 36.567,85.996 36.450,86.735 L36.048,89.332 L34.762,89.332 L35.463,84.931 C35.568,84.256 35.580,84.074 35.580,83.957 C35.580,83.788 35.490,83.724 35.282,83.724 ZM43.150,82.594 C44.253,82.594 45.110,83.075 45.110,84.204 C45.110,84.801 44.850,85.865 44.046,86.385 C43.565,86.684 42.916,86.866 41.981,86.866 C41.747,86.866 41.488,86.852 41.266,86.840 L41.266,87.190 C41.266,88.216 41.877,88.449 42.734,88.449 C43.318,88.449 44.072,88.359 44.785,88.229 L44.616,89.241 C44.058,89.372 43.318,89.489 42.487,89.489 C40.982,89.489 39.969,88.878 39.969,87.216 C39.969,86.099 40.267,84.373 40.956,83.516 C41.514,82.827 42.267,82.594 43.150,82.594 ZM41.955,86.125 C42.475,86.125 42.942,86.022 43.254,85.762 C43.695,85.373 43.851,84.646 43.851,84.294 C43.851,83.749 43.486,83.528 43.033,83.528 C42.644,83.528 42.280,83.672 41.994,84.074 C41.657,84.554 41.449,85.373 41.345,86.099 C41.540,86.113 41.773,86.125 41.955,86.125 ZM43.761,74.993 L43.761,59.794 C43.761,59.529 43.908,59.382 44.173,59.382 L46.800,59.382 C47.064,59.382 47.211,59.529 47.211,59.794 L47.211,74.993 C47.211,75.258 47.064,75.404 46.800,75.404 L44.173,75.404 C43.908,75.404 43.761,75.258 43.761,74.993 ZM47.213,81.451 C47.213,81.282 47.122,81.218 46.914,81.218 L46.070,81.218 L47.227,80.243 L48.784,80.243 C49.421,80.243 48.576,80.517 48.576,80.841 C48.576,81.101 48.512,81.607 48.407,82.205 L48.135,83.685 C48.681,83.009 49.382,82.594 50.316,82.594 C51.070,82.594 51.926,82.996 51.926,84.580 C51.926,85.645 51.628,87.801 50.822,88.735 C50.329,89.307 49.718,89.489 48.953,89.489 C48.265,89.489 47.667,89.215 47.252,88.774 L46.993,89.332 L45.993,89.332 L47.096,82.425 C47.200,81.750 47.213,81.568 47.213,81.451 ZM48.654,88.514 C49.122,88.514 49.524,88.397 49.835,87.970 C50.304,87.320 50.589,85.541 50.589,84.710 C50.589,83.802 50.161,83.633 49.758,83.633 C48.888,83.633 48.070,84.463 47.915,85.398 L47.499,87.956 C47.758,88.294 48.187,88.514 48.654,88.514 ZM53.575,83.724 L52.743,83.724 L52.900,82.749 L54.457,82.749 C55.094,82.749 55.249,83.022 55.249,83.347 C55.249,83.659 55.120,84.269 54.899,85.515 C54.626,87.035 54.562,87.385 54.562,87.748 C54.562,88.254 54.821,88.476 55.223,88.476 C55.639,88.476 56.171,88.151 56.626,87.488 C57.028,86.930 57.171,86.476 57.261,85.892 L57.755,82.749 L59.040,82.749 L58.431,86.632 C58.288,87.541 58.248,87.865 58.248,87.996 C58.248,88.229 58.327,88.359 58.729,88.359 L59.340,88.359 L59.183,89.332 L58.054,89.332 C57.145,89.332 57.015,88.878 57.015,88.371 C57.015,88.280 57.015,88.164 57.042,87.944 C56.431,88.917 55.587,89.489 54.704,89.489 C53.718,89.489 53.250,88.865 53.250,88.022 C53.250,87.606 53.315,87.190 53.561,85.905 C53.808,84.632 53.873,84.217 53.873,83.957 C53.873,83.788 53.782,83.724 53.575,83.724 ZM60.832,83.724 L59.988,83.724 L60.144,82.749 L61.689,82.749 C62.338,82.749 62.481,83.022 62.481,83.347 C62.481,83.607 62.429,84.087 62.325,84.710 L62.014,86.619 C61.871,87.515 61.845,87.865 61.845,87.996 C61.845,88.216 61.922,88.359 62.312,88.359 L62.883,88.359 L62.728,89.332 L61.585,89.332 C60.650,89.332 60.508,88.826 60.508,88.359 C60.508,88.164 60.534,87.879 60.689,86.918 L61.001,84.931 C61.104,84.256 61.131,84.074 61.131,83.957 C61.131,83.788 61.040,83.724 60.832,83.724 ZM61.261,81.841 L61.455,80.594 L62.949,80.594 L62.740,81.841 L61.261,81.841 ZM63.324,59.794 C63.324,59.529 63.472,59.382 63.736,59.382 L66.235,59.382 C66.500,59.382 66.646,59.529 66.646,59.794 L66.646,74.993 C66.646,75.258 66.500,75.404 66.235,75.404 L63.824,75.404 C63.619,75.404 63.472,75.345 63.383,75.199 L59.355,70.113 L55.298,64.379 L55.151,64.410 L55.357,69.349 L55.357,74.993 C55.357,75.258 55.211,75.404 54.945,75.404 L52.447,75.404 C52.182,75.404 52.035,75.258 52.035,74.993 L52.035,59.794 C52.035,59.529 52.182,59.382 52.447,59.382 L54.711,59.382 C54.945,59.382 55.122,59.440 55.269,59.588 L59.679,65.174 L63.383,70.406 L63.530,70.377 L63.324,65.409 L63.324,59.794 ZM64.558,81.218 L63.714,81.218 L64.869,80.243 L66.428,80.243 C67.063,80.243 66.220,80.517 66.220,80.841 C66.220,81.101 66.142,81.607 66.051,82.205 L65.350,86.619 C65.207,87.515 65.168,87.865 65.168,87.996 C65.168,88.216 65.259,88.359 65.648,88.359 L66.220,88.359 L66.063,89.332 L64.909,89.332 C63.986,89.332 63.843,88.826 63.843,88.359 C63.843,88.164 63.857,87.879 64.012,86.918 L64.740,82.425 C64.844,81.750 64.856,81.568 64.856,81.451 C64.856,81.282 64.765,81.218 64.558,81.218 ZM70.466,62.204 L70.466,59.794 C70.466,59.529 70.614,59.382 70.878,59.382 L84.519,59.382 C84.784,59.382 84.931,59.529 84.931,59.794 L84.931,62.204 C84.931,62.469 84.784,62.616 84.519,62.616 L79.247,62.616 L79.247,74.993 C79.247,75.258 79.101,75.404 78.837,75.404 L76.248,75.404 C75.984,75.404 75.838,75.258 75.838,74.993 L75.838,62.616 L70.878,62.616 C70.614,62.616 70.466,62.469 70.466,62.204 ZM78.839,81.880 L79.008,80.893 L81.553,80.893 C82.539,80.893 82.852,81.061 82.942,82.062 L83.488,87.865 C83.514,88.190 83.579,88.346 83.981,88.346 L84.643,88.346 L84.487,89.332 L83.371,89.332 C82.513,89.332 82.229,89.008 82.163,88.203 L82.020,86.645 L79.385,86.645 L78.372,89.332 L77.034,89.332 L79.955,81.880 L78.839,81.880 ZM79.709,85.658 L81.943,85.658 L81.657,82.321 C81.617,81.931 81.540,81.880 81.202,81.880 L81.150,81.880 L79.709,85.658 ZM85.915,83.724 L85.135,83.724 L85.292,82.749 L86.771,82.749 C87.408,82.749 87.564,83.022 87.564,83.347 C87.564,83.542 87.499,83.931 87.434,84.346 C88.018,83.269 88.914,82.594 89.823,82.594 C90.757,82.594 91.082,83.191 91.082,83.919 C91.082,83.996 91.070,84.087 91.057,84.204 C91.641,83.204 92.510,82.594 93.368,82.594 C94.315,82.594 94.627,83.191 94.627,83.919 C94.627,84.165 94.601,84.568 94.471,85.347 L94.276,86.632 C94.133,87.541 94.095,87.865 94.095,87.996 C94.095,88.216 94.173,88.359 94.575,88.359 L95.147,88.359 L94.991,89.332 L93.835,89.332 C92.901,89.332 92.770,88.826 92.770,88.359 C92.770,88.164 92.783,87.879 92.939,86.918 L93.173,85.437 C93.264,84.814 93.277,84.554 93.277,84.437 C93.277,83.970 93.056,83.776 92.705,83.776 C91.978,83.776 91.005,84.775 90.693,86.723 L90.278,89.332 L89.005,89.332 L89.615,85.437 C89.720,84.814 89.732,84.554 89.732,84.437 C89.732,83.970 89.511,83.776 89.162,83.776 C88.433,83.776 87.447,84.775 87.148,86.723 L86.733,89.332 L85.448,89.332 L86.096,85.230 C86.213,84.463 86.253,84.204 86.253,84.009 C86.253,83.814 86.149,83.724 85.915,83.724 ZM94.720,65.468 C98.835,65.850 101.805,67.232 101.805,70.583 C101.805,73.787 98.806,75.639 94.779,75.639 C91.838,75.639 89.546,74.935 87.428,73.170 C87.223,73.023 87.223,72.817 87.400,72.582 L88.781,70.731 C88.957,70.495 89.163,70.465 89.369,70.642 C90.986,71.905 92.515,72.465 94.837,72.465 C97.307,72.465 98.425,71.730 98.425,70.642 C98.425,69.495 97.307,68.995 94.338,68.731 C90.398,68.408 87.781,67.232 87.781,63.910 C87.781,60.999 90.575,59.147 94.425,59.147 C97.012,59.147 99.424,60.029 101.305,61.587 C101.511,61.734 101.541,61.910 101.393,62.116 L99.924,63.938 C99.747,64.144 99.541,64.175 99.306,63.969 C97.984,62.910 96.278,62.321 94.250,62.321 C92.250,62.321 91.163,62.880 91.163,63.792 C91.163,64.733 92.044,65.203 94.720,65.468 ZM99.054,82.594 C100.158,82.594 101.014,83.075 101.014,84.204 C101.014,84.801 100.754,85.865 99.950,86.385 C99.469,86.684 98.820,86.866 97.886,86.866 C97.652,86.866 97.392,86.852 97.171,86.840 L97.171,87.190 C97.171,88.216 97.781,88.449 98.639,88.449 C99.223,88.449 99.976,88.359 100.690,88.229 L100.521,89.241 C99.963,89.372 99.223,89.489 98.391,89.489 C96.886,89.489 95.873,88.878 95.873,87.216 C95.873,86.099 96.171,84.373 96.860,83.516 C97.418,82.827 98.171,82.594 99.054,82.594 ZM97.859,86.125 C98.379,86.125 98.846,86.022 99.158,85.762 C99.600,85.373 99.755,84.646 99.755,84.294 C99.755,83.749 99.392,83.528 98.937,83.528 C98.548,83.528 98.184,83.672 97.898,84.074 C97.561,84.554 97.354,85.373 97.249,86.099 C97.444,86.113 97.678,86.125 97.859,86.125 ZM102.663,83.724 L101.831,83.724 L101.988,82.749 L103.468,82.749 C104.103,82.749 104.260,83.022 104.260,83.347 C104.260,83.554 104.194,83.957 104.130,84.399 C104.754,83.191 105.467,82.594 106.299,82.594 C106.519,82.594 106.701,82.620 106.960,82.684 L106.752,83.970 C106.506,83.931 106.273,83.919 106.078,83.919 C105.415,83.919 104.935,84.282 104.559,84.788 C104.065,85.476 103.948,85.996 103.831,86.735 L103.429,89.332 L102.143,89.332 L102.844,84.931 C102.949,84.256 102.961,84.074 102.961,83.957 C102.961,83.788 102.870,83.724 102.663,83.724 ZM108.544,81.841 L108.738,80.594 L110.232,80.594 L110.025,81.841 L108.544,81.841 ZM108.115,83.724 L107.271,83.724 L107.427,82.749 L108.973,82.749 C109.622,82.749 109.765,83.022 109.765,83.347 C109.765,83.607 109.713,84.087 109.608,84.710 L109.297,86.619 C109.154,87.515 109.128,87.865 109.128,87.996 C109.128,88.216 109.207,88.359 109.596,88.359 L110.166,88.359 L110.011,89.332 L108.869,89.332 C107.934,89.332 107.791,88.826 107.791,88.359 C107.791,88.164 107.817,87.879 107.973,86.918 L108.284,84.931 C108.389,84.256 108.414,84.074 108.414,83.957 C108.414,83.788 108.323,83.724 108.115,83.724 ZM114.114,82.594 C115.256,82.594 115.983,83.009 115.983,84.048 C115.983,84.152 115.957,84.412 115.892,84.814 L115.802,85.360 L114.710,85.360 L114.828,84.671 C114.853,84.463 114.867,84.294 114.867,84.230 C114.867,83.827 114.685,83.528 114.049,83.528 C113.608,83.528 113.244,83.685 112.984,84.048 C112.490,84.710 112.244,86.385 112.244,87.190 C112.244,88.177 112.880,88.449 113.763,88.449 C114.452,88.449 115.165,88.359 115.763,88.254 L115.594,89.267 C115.153,89.372 114.295,89.489 113.477,89.489 C111.971,89.489 110.933,88.956 110.933,87.216 C110.933,86.139 111.218,84.360 111.920,83.490 C112.464,82.801 113.231,82.594 114.114,82.594 Z" class="cls-1"/>
</svg>
