<svg xmlns="http://www.w3.org/2000/svg" xmlns:xlink="http://www.w3.org/1999/xlink" preserveAspectRatio="xMidYMid" width="140" height="70" viewBox="0 0 140 70">
  <defs>
    <style>
      .cls-1 {
        fill: #47ad58;
      }

      .cls-2 {
        fill: #fff;
        fill-rule: evenodd;
      }
    </style>
  </defs>
  <g>
    <rect width="140" height="70" class="cls-1"/>
    <path d="M105.955,51.318 L101.956,53.360 C101.537,53.574 101.186,53.460 100.972,53.042 L97.059,45.633 C96.786,45.097 96.999,44.441 97.535,44.168 L100.894,42.452 C101.431,42.178 102.088,42.391 102.361,42.928 L106.274,50.335 C106.487,50.753 106.374,51.104 105.955,51.318 ZM91.348,43.290 C83.098,43.290 76.519,37.076 76.519,28.670 C76.519,20.316 83.098,13.998 91.348,13.998 C99.546,13.998 106.125,20.316 106.125,28.670 C106.125,37.076 99.546,43.290 91.348,43.290 ZM91.348,19.689 C86.127,19.689 82.628,23.396 82.628,28.670 C82.628,33.839 86.127,37.598 91.348,37.598 C96.517,37.598 100.016,33.839 100.016,28.670 C100.016,23.396 96.517,19.689 91.348,19.689 ZM74.977,32.743 C74.977,39.687 68.241,43.081 62.184,43.081 C55.971,43.081 52.160,41.410 48.818,38.069 C48.453,37.703 48.453,37.390 48.766,37.076 L51.743,33.943 C52.004,33.682 52.526,33.630 52.787,33.891 C55.241,36.345 57.955,37.390 61.976,37.390 C65.996,37.390 68.868,35.875 68.868,32.743 C68.868,29.662 65.893,28.304 61.768,28.304 C59.470,28.304 57.486,28.722 55.554,29.714 C55.241,29.871 54.928,29.923 54.614,29.871 L51.429,29.088 C51.012,28.983 50.855,28.722 50.907,28.252 L51.899,14.718 C51.951,14.249 52.212,13.988 52.630,13.988 L72.251,13.988 C72.721,13.988 72.982,14.249 72.982,14.718 L72.982,19.261 C72.982,19.731 72.721,19.992 72.251,19.992 L57.173,19.992 L56.964,23.939 C58.583,23.260 60.931,22.947 63.020,22.947 C69.442,22.947 74.977,26.007 74.977,32.743 ZM44.386,53.580 L42.014,53.580 L42.014,55.754 C42.014,55.901 41.932,55.983 41.785,55.983 L40.226,55.983 C40.079,55.983 39.997,55.901 39.997,55.754 L39.997,47.205 C39.997,47.058 40.079,46.976 40.226,46.976 L44.386,46.976 C46.364,46.976 47.853,48.461 47.853,50.293 C47.853,52.190 46.364,53.580 44.386,53.580 ZM44.386,48.837 L42.014,48.837 L42.014,51.781 L44.386,51.781 C45.383,51.781 45.956,51.160 45.956,50.293 C45.956,49.442 45.383,48.837 44.386,48.837 ZM45.265,41.976 L40.742,41.976 C40.272,41.976 40.011,41.715 40.011,41.245 L40.011,19.981 L37.731,19.981 C37.261,19.981 37.000,19.720 37.000,19.250 L37.000,14.718 C37.000,14.249 37.261,13.988 37.731,13.988 L45.265,13.988 C45.734,13.988 45.996,14.249 45.996,14.718 L45.996,41.245 C45.996,41.715 45.734,41.976 45.265,41.976 ZM54.290,46.907 C56.857,46.907 58.967,48.886 58.967,51.503 C58.967,54.136 56.857,56.082 54.290,56.082 C51.706,56.082 49.596,54.136 49.596,51.503 C49.596,48.886 51.706,46.907 54.290,46.907 ZM54.290,54.300 C55.909,54.300 57.054,53.122 57.054,51.503 C57.054,49.851 55.909,48.690 54.290,48.690 C52.654,48.690 51.509,49.851 51.509,51.503 C51.509,53.122 52.654,54.300 54.290,54.300 ZM61.284,46.976 L62.745,46.976 C62.891,46.976 62.973,47.058 62.973,47.205 L62.973,55.786 C62.973,55.933 62.891,56.015 62.745,56.015 L61.284,56.015 C61.136,56.015 61.055,55.933 61.055,55.786 L61.055,47.205 C61.055,47.058 61.136,46.976 61.284,46.976 ZM66.278,46.976 L67.429,46.976 C67.560,46.976 67.658,47.009 67.740,47.091 L70.099,50.260 L71.910,52.577 L71.991,52.561 L71.971,50.391 L71.971,47.205 C71.971,47.058 72.053,46.976 72.200,46.976 L73.746,46.976 C73.893,46.976 73.975,47.058 73.975,47.205 L73.975,55.786 C73.975,55.933 73.893,56.015 73.746,56.015 L72.405,56.015 C72.291,56.015 72.209,55.982 72.160,55.900 L69.919,53.008 L68.006,50.599 L67.924,50.616 L67.976,52.582 L67.976,55.786 C67.976,55.933 67.895,56.015 67.747,56.015 L66.278,56.015 C66.130,56.015 66.049,55.933 66.049,55.786 L66.049,47.205 C66.049,47.058 66.130,46.976 66.278,46.976 ZM76.173,46.976 L83.824,46.976 C83.972,46.976 84.054,47.058 84.054,47.205 L84.054,48.608 C84.054,48.755 83.972,48.837 83.824,48.837 L80.943,48.837 L80.943,55.786 C80.943,55.933 80.861,56.015 80.714,56.015 L79.248,56.015 C79.101,56.015 79.019,55.933 79.019,55.786 L79.019,48.837 L76.173,48.837 C76.026,48.837 75.944,48.755 75.944,48.608 L75.944,47.205 C75.944,47.058 76.026,46.976 76.173,46.976 ZM86.383,53.351 C86.481,53.220 86.595,53.204 86.710,53.302 C87.609,54.005 88.460,54.316 89.752,54.316 C91.126,54.316 91.747,53.907 91.747,53.302 C91.747,52.664 91.126,52.386 89.474,52.239 C87.282,52.059 85.827,51.405 85.827,49.557 C85.827,47.938 87.380,46.907 89.523,46.907 C90.962,46.907 92.303,47.398 93.350,48.265 C93.464,48.347 93.481,48.445 93.399,48.559 L92.581,49.573 C92.483,49.688 92.369,49.704 92.238,49.589 C91.502,49.001 90.553,48.674 89.425,48.674 C88.312,48.674 87.708,48.984 87.708,49.491 C87.708,50.015 88.198,50.276 89.686,50.424 C91.976,50.636 93.628,51.405 93.628,53.269 C93.628,55.052 91.960,56.082 89.719,56.082 C88.084,56.082 86.808,55.690 85.630,54.709 C85.516,54.627 85.516,54.512 85.614,54.381 L86.383,53.351 Z" class="cls-2"/>
  </g>
</svg>
